<svg width="32" height="32" viewBox="0 0 32 32" fill="none" xmlns="http://www.w3.org/2000/svg">
<path d="M9.43274 13.8889L6.43738 9.70932C5.96834 9.05483 6.43964 8.14762 7.2487 8.14762H13.2394C14.0485 8.14762 14.5198 9.05483 14.0507 9.70932L11.0554 13.8889C10.6584 14.4429 9.82972 14.4429 9.43274 13.8889Z" fill="#353535"/>
<path d="M18.5426 6.89095C18.7309 6.64466 19.0243 6.5 19.3358 6.5H25.6766C26.4997 6.5 26.9673 7.43523 26.4697 8.08621L13.4574 25.1091C13.2691 25.3553 12.9756 25.5 12.6642 25.5H6.32342C5.50029 25.5 5.03264 24.5648 5.53025 23.9138L18.5426 6.89095Z" fill="#353535"/>
<path d="M20.9446 18.1111L17.9493 22.2907C17.4802 22.9452 17.9515 23.8524 18.7606 23.8524H24.7513C25.5603 23.8524 26.0316 22.9452 25.5626 22.2907L22.5672 18.1111C22.1703 17.5571 21.3416 17.5571 20.9446 18.1111Z" fill="#353535"/>
<path d="M28 16C28 17.0842 27.1147 17.9631 26.0227 17.9631C24.9307 17.9631 24.0454 17.0842 24.0454 16C24.0454 14.9158 24.9307 14.0369 26.0227 14.0369C27.1147 14.0369 28 14.9158 28 16Z" fill="#353535"/>
<path d="M7.95457 16C7.95457 17.0842 7.06931 17.9631 5.97729 17.9631C4.88526 17.9631 4 17.0842 4 16C4 14.9158 4.88526 14.0369 5.97729 14.0369C7.06931 14.0369 7.95457 14.9158 7.95457 16Z" fill="#353535"/>
</svg>
